<svg width="63" height="63" viewBox="0 0 63 63" fill="none" xmlns="http://www.w3.org/2000/svg">
<path d="M27.7125 60.9113C26.4404 62.1698 24.7231 62.8757 22.9336 62.8757C21.1441 62.8757 19.4268 62.1698 18.1546 60.9113L2.55898 45.3156C1.30046 44.0435 0.594566 42.3262 0.594566 40.5367C0.594566 38.7472 1.30046 37.0299 2.55898 35.7577L35.4658 2.73951C36.2214 1.97381 37.1507 1.40182 38.1747 1.07213C39.1987 0.742431 40.2872 0.664773 41.3476 0.845751L54.7153 3.0737C56.1059 3.31168 57.3885 3.97522 58.3861 4.97282C59.3837 5.97043 60.0472 7.25296 60.2852 8.64358L62.5131 22.0113C62.6941 23.0717 62.6165 24.1602 62.2868 25.1842C61.9571 26.2082 61.3851 27.1374 60.6194 27.8931L27.7125 60.9113ZM47.4745 20.4294C47.4745 19.5481 47.2131 18.6866 46.7235 17.9539C46.2339 17.2211 45.538 16.65 44.7238 16.3127C43.9096 15.9755 43.0136 15.8872 42.1493 16.0592C41.2849 16.2311 40.4909 16.6555 39.8678 17.2786C39.2446 17.9018 38.8202 18.6958 38.6483 19.5601C38.4764 20.4245 38.5646 21.3204 38.9019 22.1346C39.2391 22.9488 39.8102 23.6448 40.543 24.1344C41.2758 24.624 42.1373 24.8853 43.0186 24.8853C44.2003 24.8853 45.3337 24.4159 46.1694 23.5802C47.005 22.7446 47.4745 21.6112 47.4745 20.4294Z" fill="#EF4444"/>
</svg>
