<svg width="63" height="63" viewBox="0 0 63 63" fill="none" xmlns="http://www.w3.org/2000/svg">
<path d="M0.661621 2.57137C0.661621 1.43844 1.58004 0.52002 2.71297 0.52002H19.6065C20.7394 0.52002 21.6578 1.43844 21.6578 2.57137V16.5688C21.6578 17.7018 20.7394 18.6202 19.6065 18.6202H2.71297C1.58004 18.6202 0.661621 17.7018 0.661621 16.5688V2.57137Z" fill="#10B981"/>
<path d="M7.72823 47.7556C7.40622 47.6763 7.06981 47.6763 6.7478 47.7556L2.22285 48.8689C1.30605 49.0945 0.661621 49.9167 0.661621 50.8609V60.0094C0.661621 61.1424 1.58004 62.0608 2.71297 62.0608H19.6065C20.7394 62.0608 21.6578 61.1424 21.6578 60.0094V49.4514C21.6578 47.8466 19.8981 46.8633 18.5313 47.7044L16.117 49.1903C15.649 49.4783 15.0851 49.5665 14.5515 49.4352L7.72823 47.7556Z" fill="#10B981"/>
<path d="M0.661621 42.9072C0.661621 44.2387 1.91026 45.2173 3.2031 44.8992L6.74783 44.027C7.06982 43.9478 7.40622 43.9478 7.7282 44.027L13.9447 45.557C14.4782 45.6883 15.042 45.6001 15.5099 45.3122L20.6815 42.13C21.2882 41.7566 21.6578 41.0953 21.6578 40.3829V24.7745C21.6578 23.6416 20.7394 22.7231 19.6065 22.7231H2.71297C1.58004 22.7231 0.661621 23.6416 0.661621 24.7745V42.9072ZM-nan -nanL11.1597 29.4805C13.2219 29.4805 14.9004 31.159 14.9004 33.2212C14.9004 35.2835 13.2219 36.9619 11.1597 36.9619C9.09751 36.9619 7.41902 35.2835 7.41902 33.2212C7.41902 31.159 9.09751 29.4805 11.1597 29.4805L-nan -nanZ" fill="#10B981"/>
<path d="M25.7607 43.1163C25.7607 41.9834 26.6792 41.0649 27.8121 41.0649H60.1511C61.284 41.0649 62.2024 41.9834 62.2024 43.1163V60.0098C62.2024 61.1427 61.284 62.0611 60.1511 62.0611H27.8121C26.6792 62.0611 25.7607 61.1427 25.7607 60.0098V43.1163Z" fill="#10B981"/>
<path d="M43.9815 20.7927C45.6476 20.7927 46.9982 19.442 46.9982 17.776C46.9982 16.1099 45.6476 14.7593 43.9815 14.7593C42.3155 14.7593 40.9648 16.1099 40.9648 17.776C40.9648 19.442 42.3155 20.7927 43.9815 20.7927Z" fill="#10B981"/>
<path d="M27.8121 0.52002C26.6792 0.52002 25.7607 1.43844 25.7607 2.57137V34.9103C25.7607 36.0433 26.6792 36.9617 27.8121 36.9617H32.3975C33.5304 36.9617 34.4488 36.0433 34.4488 34.9103V29.6058C34.4488 27.2167 35.4041 25.047 36.953 23.4578C37.8357 22.5522 38.0827 21.0814 37.6792 19.8829C36.3175 15.8392 39.2277 11.1388 43.9816 11.1388C48.7384 11.1388 51.644 15.8407 50.2837 19.8827C49.8804 21.0813 50.1275 22.5522 51.0101 23.4578C52.559 25.047 53.5143 27.2167 53.5143 29.6058V34.9103C53.5143 36.0433 54.4328 36.9617 55.5657 36.9617H60.1511C61.284 36.9617 62.2024 36.0433 62.2024 34.9103V2.57137C62.2024 1.43844 61.284 0.52002 60.1511 0.52002H27.8121Z" fill="#10B981"/>
<path d="M38.0688 29.6057V36.9616H49.8943V29.6057C49.8943 26.7422 47.5642 24.4121 44.7008 24.4121H43.2624C40.3989 24.4121 38.0688 26.7422 38.0688 29.6057Z" fill="#10B981"/>
</svg>
