<svg width="148" height="31" viewBox="0 0 148 31" fill="none" xmlns="http://www.w3.org/2000/svg">
<path d="M5.28809 15.8087C5.98872 15.9102 6.60969 15.9824 7.14961 16.0243C7.68953 16.0666 8.30064 16.0878 8.98258 16.0878C10.2901 16.0878 11.3886 15.9697 12.2795 15.7325C13.1698 15.496 14.0226 15.107 14.8375 14.5653L13.4447 18.067H0.910948C1.19536 17.9317 1.42267 17.784 1.59325 17.6229C1.76382 17.4622 1.89598 17.255 1.99114 17.0013C2.08594 16.7475 2.15184 16.4303 2.18991 16.0497C2.22762 15.6691 2.247 15.1912 2.247 14.616V3.85715C2.247 3.28234 2.22797 2.80409 2.18991 2.42347C2.15184 2.04285 2.08065 1.72567 1.97704 1.47192C1.87272 1.21817 1.73527 1.01517 1.56505 0.862925C1.39483 0.710676 1.17633 0.567238 0.911301 0.431553H10.9153C11.1997 0.431553 11.4076 0.423448 11.5405 0.406179C11.6727 0.389615 11.8432 0.346971 12.0522 0.279305V3.4004C11.8055 3.1974 11.569 3.02436 11.3417 2.88022C11.1141 2.73678 10.8631 2.62647 10.5886 2.55035C10.3137 2.47422 9.99617 2.41924 9.63634 2.38541C9.27616 2.35158 8.85924 2.33466 8.38593 2.33466C7.66557 2.33466 7.07877 2.34735 6.62379 2.37272C6.16916 2.3981 5.72369 2.44497 5.28809 2.51228V7.51111H9.29554C9.52286 7.51111 9.70295 7.503 9.83546 7.48573C9.96762 7.46917 10.129 7.41842 10.3186 7.33349V10.1755C10.0723 9.88823 9.78295 9.69334 9.45202 9.59184C9.12038 9.49034 8.62276 9.43959 7.95984 9.43959H5.28809V15.8087ZM20.095 14.9205C20.095 15.3607 20.1186 15.7368 20.1662 16.0497C20.2134 16.363 20.2983 16.6421 20.422 16.8871C20.545 17.1324 20.7064 17.3484 20.9052 17.5341C21.104 17.7206 21.3549 17.8982 21.6583 18.067H16.3148C16.6369 17.8809 16.902 17.6952 17.1106 17.5088C17.3189 17.3227 17.4803 17.1116 17.5938 16.8744C17.7076 16.6376 17.788 16.3627 17.8356 16.0497C17.8828 15.7368 17.9067 15.3607 17.9067 14.9205V3.57802C17.9067 3.13819 17.8828 2.76215 17.8356 2.44885C17.788 2.13589 17.7027 1.85677 17.5797 1.61148C17.456 1.36654 17.2953 1.15473 17.0965 0.977111C16.8977 0.799487 16.6461 0.617987 16.3434 0.431553H20.7202C20.7388 0.499219 20.7628 0.554551 20.7914 0.596489C20.8199 0.638781 20.8576 0.69376 20.9048 0.761425C20.9521 0.829091 21.0137 0.913674 21.0895 1.01517C21.1649 1.11667 21.2788 1.252 21.4307 1.42117L32.5434 14.0578V3.57802C32.5434 3.13819 32.5194 2.76215 32.4722 2.44885C32.4246 2.13589 32.3393 1.86135 32.2163 1.62417C32.093 1.38734 31.9273 1.17623 31.7191 0.989798C31.5104 0.804069 31.2546 0.617987 30.9518 0.431553H36.3235C36.0011 0.617987 35.736 0.804069 35.5277 0.989798C35.3191 1.17623 35.1584 1.38734 35.0446 1.62417C34.9307 1.861 34.85 2.13589 34.8028 2.44885C34.7552 2.76215 34.7316 3.13819 34.7316 3.57802V18.9297C33.8978 18.6926 33.1541 18.35 32.5004 17.9021C31.8466 17.4541 31.2165 16.8578 30.6103 16.1131L20.095 4.21239V14.9205ZM51.1022 3.62877C50.458 3.07053 49.7284 2.63916 48.914 2.33466C48.0992 2.03016 47.2466 1.87791 46.3561 1.87791C45.1624 1.87791 44.2052 2.10629 43.4855 2.56303C42.7652 3.01978 42.4057 3.62877 42.4057 4.39001C42.4057 4.7287 42.467 5.02897 42.5904 5.29082C42.7134 5.55338 42.9407 5.811 43.2727 6.06475C43.604 6.3185 44.0586 6.58493 44.6369 6.86405C45.2146 7.14318 45.9487 7.46917 46.8396 7.84098C47.4648 8.09473 48.0001 8.31922 48.4456 8.51341C48.8907 8.70795 49.284 8.89016 49.6252 9.05897C49.9663 9.22813 50.2599 9.38496 50.5062 9.5284C50.7522 9.67219 50.9894 9.82902 51.2167 9.99783C52.2966 10.7591 52.8368 11.7321 52.8368 12.9159C52.8368 13.5757 52.6754 14.2189 52.3537 14.8444C52.0312 15.4703 51.5766 16.037 50.9894 16.5445C49.4546 17.864 47.3608 18.5237 44.7085 18.5237C43.7421 18.5237 42.8561 18.4603 42.0508 18.3334C41.2452 18.2066 40.369 17.9909 39.4221 17.6864L38.5125 14.3623C39.5355 15.0728 40.5823 15.6057 41.6529 15.9609C42.7232 16.3161 43.8743 16.4938 45.106 16.4938C45.7499 16.4938 46.3469 16.4219 46.8967 16.2781C47.4461 16.1346 47.9198 15.9401 48.3177 15.6945C48.7156 15.4495 49.0282 15.1616 49.2555 14.8317C49.4828 14.5019 49.5966 14.1427 49.5966 13.7533C49.5966 13.398 49.5064 13.0516 49.3267 12.7129C49.1462 12.3746 48.9048 12.0874 48.6017 11.8502C48.4312 11.7152 48.2465 11.588 48.0477 11.4696C47.8489 11.3515 47.6072 11.2246 47.3228 11.0889C47.0387 10.9536 46.6926 10.7971 46.2856 10.6195C45.8778 10.4419 45.371 10.2262 44.7652 9.97246C44.1777 9.73563 43.6709 9.52452 43.2448 9.33809C42.8184 9.15236 42.4441 8.97897 42.122 8.81791C41.7995 8.6572 41.5201 8.50072 41.2836 8.34848C41.0464 8.19623 40.824 8.02741 40.6157 7.84098C40.1227 7.4519 39.7392 6.98705 39.4647 6.44537C39.1898 5.90404 39.0527 5.33769 39.0527 4.74526C39.0527 4.0182 39.2279 3.36234 39.5785 2.77872C39.9289 2.1951 40.4311 1.69641 41.0848 1.28161C41.7382 0.867154 42.5245 0.54997 43.4436 0.330055C44.3624 0.110493 45.3904 0.000183105 46.5273 0.000183105C47.3231 0.000183105 48.0808 0.0470559 48.8008 0.139744C49.5209 0.233137 50.2881 0.380804 51.1029 0.583802V3.62877H51.1022ZM59.799 15.8087C60.4997 15.9102 61.1206 15.9824 61.6606 16.0243C62.2005 16.0666 62.8116 16.0878 63.4935 16.0878C64.801 16.0878 65.8996 15.9697 66.7905 15.7325C67.6807 15.496 68.5336 15.107 69.3484 14.5653L67.9556 18.067H55.4219C55.7063 17.9317 55.9336 17.784 56.1042 17.6229C56.2748 17.4622 56.4069 17.255 56.5021 17.0013C56.5969 16.7475 56.6628 16.4303 56.7009 16.0497C56.7386 15.6691 56.7579 15.1912 56.7579 14.616V3.85715C56.7579 3.28234 56.7389 2.80409 56.7009 2.42347C56.6628 2.04285 56.5916 1.72567 56.488 1.47192C56.3837 1.21817 56.2462 1.01517 56.076 0.862925C55.9058 0.710676 55.6873 0.567238 55.4223 0.431553H65.4266C65.711 0.431553 65.9189 0.423448 66.0518 0.406179C66.184 0.389615 66.3545 0.346971 66.5635 0.279305V3.4004C66.3168 3.1974 66.0804 3.02436 65.853 2.88022C65.6254 2.73678 65.3744 2.62647 65.0999 2.55035C64.825 2.47422 64.5075 2.41924 64.1476 2.38541C63.7875 2.35158 63.3705 2.33466 62.8972 2.33466C62.1769 2.33466 61.5901 2.34735 61.1351 2.37272C60.6805 2.3981 60.235 2.44497 59.7994 2.51228V7.51111H63.8068C64.0342 7.51111 64.2142 7.503 64.3468 7.48573C64.4789 7.46917 64.6403 7.41842 64.8299 7.33349V10.1755C64.5836 9.88823 64.2943 9.69334 63.9633 9.59184C63.6317 9.49034 63.1341 9.43959 62.4711 9.43959H59.7994V15.8087H59.799ZM88.9585 2.36003C89.0907 2.05554 89.2003 1.81448 89.2852 1.63685C89.3705 1.45923 89.4272 1.31156 89.4558 1.1928C89.484 1.07473 89.503 0.960547 89.5125 0.850237C89.5217 0.74028 89.5266 0.600718 89.5266 0.431553H94.7277C94.1029 0.70257 93.7899 1.26081 93.7899 2.10629C93.7899 2.42805 93.8185 2.74947 93.8752 3.07053L95.723 14.8952C95.7797 15.3519 95.8411 15.7368 95.9073 16.0497C95.9736 16.363 96.0638 16.6333 96.1776 16.8617C96.2915 17.0901 96.4377 17.2973 96.6182 17.4834C96.7979 17.6695 97.0301 17.864 97.3145 18.067H91.5168C91.9714 17.8809 92.2935 17.6318 92.4831 17.3184C92.672 17.0055 92.7672 16.5787 92.7672 16.037C92.7672 15.8682 92.7577 15.6906 92.739 15.5042C92.7196 15.3181 92.6822 14.9967 92.6252 14.5399L91.0336 3.07053L84.2977 18.4223C83.9375 18.1516 83.639 17.9148 83.4021 17.7118C83.165 17.5088 82.9567 17.3015 82.7773 17.0901C82.5968 16.8786 82.4361 16.646 82.2941 16.3923C82.1521 16.1385 81.9956 15.834 81.825 15.4788L75.9416 3.07053L74.1795 14.8952C74.1414 15.2169 74.1083 15.5003 74.0801 15.7452C74.0515 15.9905 74.0374 16.1724 74.0374 16.2908C74.0374 16.6968 74.1227 17.0228 74.2933 17.2677C74.4639 17.513 74.7765 17.7798 75.2315 18.067H70.3144C70.8067 17.6444 71.1669 17.175 71.3942 16.6587C71.6216 16.1431 71.8017 15.4368 71.9342 14.5399L73.6678 3.27353C73.7055 3.00321 73.7389 2.79141 73.7671 2.63916C73.7957 2.48691 73.814 2.36849 73.8239 2.28391C73.833 2.19968 73.8383 2.13166 73.8383 2.08091V1.90329C73.8383 1.59879 73.7626 1.34082 73.611 1.12936C73.4591 0.917903 73.1846 0.685301 72.7867 0.431553H78.0445C78.0445 0.583802 78.0586 0.706799 78.0872 0.799488C78.1157 0.892881 78.1961 1.08319 78.329 1.37042L84.0985 13.4742L88.9585 2.36003ZM106.324 0.406179C107.347 0.406179 108.171 0.4527 108.796 0.54574C109.421 0.638781 109.98 0.803717 110.473 1.04055C111.25 1.39579 111.852 1.86135 112.278 2.43616C112.704 3.01132 112.917 3.64604 112.917 4.33927C112.917 4.91443 112.765 5.45188 112.463 5.95056C112.159 6.4496 111.733 6.86018 111.184 7.18124C111.013 7.28274 110.842 7.37613 110.672 7.46036C110.502 7.54529 110.246 7.65525 109.905 7.79023C110.454 7.92592 110.885 8.04398 111.198 8.14548C111.511 8.24698 111.827 8.38231 112.15 8.55147C113.002 8.97439 113.66 9.53263 114.125 10.2262C114.589 10.9201 114.821 11.6814 114.821 12.5099C114.821 13.5249 114.485 14.4599 113.813 15.3138C113.14 16.1681 112.216 16.8409 111.042 17.3311C110.719 17.4668 110.388 17.5807 110.047 17.6737C109.706 17.7671 109.336 17.8386 108.938 17.8894C108.54 17.9401 108.095 17.9824 107.603 18.0163C107.11 18.0504 106.551 18.067 105.926 18.067H99.5592C99.8436 17.9317 100.071 17.784 100.241 17.6229C100.412 17.4622 100.544 17.255 100.639 17.0013C100.734 16.7475 100.8 16.4346 100.838 16.0624C100.876 15.6906 100.895 15.2169 100.895 14.6414V3.85715C100.895 3.28234 100.876 2.80832 100.838 2.43616C100.8 2.06435 100.734 1.75104 100.639 1.49729C100.544 1.24355 100.412 1.03667 100.241 0.875612C100.071 0.714905 99.8436 0.567238 99.5592 0.431553H104.334C104.618 0.431553 104.969 0.423448 105.385 0.406179H106.324ZM103.822 7.53648C104.087 7.57067 104.296 7.58723 104.448 7.58723H104.959C106.38 7.58723 107.526 7.33349 108.398 6.82599C109.27 6.3185 109.706 5.63338 109.706 4.77064C109.706 3.95864 109.355 3.31617 108.654 2.84215C107.953 2.36884 107.024 2.13166 105.869 2.13166C105.585 2.13166 105.296 2.14012 105.002 2.15704C104.708 2.17395 104.315 2.2166 103.822 2.28391V7.53648ZM103.822 15.9355C104.372 16.037 104.831 16.1047 105.201 16.1385C105.571 16.1727 105.992 16.1893 106.466 16.1893C108.076 16.1893 109.312 15.902 110.175 15.3265C111.036 14.7517 111.468 13.9309 111.468 12.8652C111.468 11.6979 111.003 10.7933 110.075 10.1501C109.582 9.81175 109.038 9.57069 108.441 9.4269C107.844 9.28346 107.062 9.21122 106.096 9.21122C105.698 9.21122 105.333 9.22003 105.002 9.23659C104.67 9.25351 104.277 9.28734 103.822 9.33809V15.9355ZM121.926 15.8594C122.59 15.9443 123.267 16.0117 123.959 16.0624C124.65 16.1131 125.318 16.1385 125.963 16.1385C126.493 16.1385 126.986 16.1093 127.44 16.0497C127.895 15.9909 128.336 15.8975 128.762 15.7706C129.188 15.6437 129.614 15.4749 130.041 15.2631C130.467 15.0516 130.927 14.7937 131.419 14.4892L129.827 18.067H117.55C117.834 17.9299 118.061 17.7801 118.232 17.617C118.402 17.4545 118.535 17.2441 118.63 16.9868C118.724 16.7299 118.79 16.4141 118.828 16.0398C118.866 15.6656 118.885 15.1908 118.885 14.6157V3.83142C118.885 3.25661 118.866 2.78259 118.828 2.41043C118.79 2.03827 118.724 1.72531 118.63 1.47157C118.535 1.21782 118.402 1.01094 118.232 0.849885C118.062 0.689178 117.834 0.541511 117.55 0.405826H123.262C122.978 0.541511 122.751 0.689178 122.58 0.849885C122.409 1.01094 122.277 1.21782 122.182 1.47157C122.087 1.72531 122.021 2.03827 121.983 2.41043C121.945 2.78259 121.926 3.25626 121.926 3.83142V15.8594ZM137.615 15.8087C138.315 15.9102 138.936 15.9824 139.476 16.0243C140.016 16.0666 140.627 16.0878 141.309 16.0878C142.617 16.0878 143.715 15.9697 144.606 15.7325C145.496 15.496 146.349 15.107 147.164 14.5653L145.772 18.067H133.238C133.522 17.9317 133.75 17.784 133.92 17.6229C134.091 17.4622 134.223 17.255 134.318 17.0013C134.413 16.7475 134.479 16.4303 134.517 16.0497C134.554 15.6691 134.573 15.1912 134.573 14.616V3.85715C134.573 3.28234 134.554 2.80409 134.517 2.42347C134.479 2.04285 134.408 1.72567 134.304 1.47192C134.2 1.21817 134.062 1.01517 133.892 0.862925C133.721 0.710676 133.503 0.567238 133.238 0.431553H143.242C143.527 0.431553 143.735 0.423448 143.868 0.406179C144 0.389615 144.17 0.346971 144.379 0.279305V3.4004C144.133 3.1974 143.896 3.02436 143.669 2.88022C143.441 2.73678 143.19 2.62647 142.915 2.55035C142.641 2.47422 142.323 2.41924 141.963 2.38541C141.603 2.35158 141.186 2.33466 140.713 2.33466C139.992 2.33466 139.405 2.34735 138.951 2.37272C138.496 2.3981 138.05 2.44497 137.615 2.51228V7.51111H141.622C141.85 7.51111 142.029 7.503 142.162 7.48573C142.294 7.46917 142.456 7.41842 142.645 7.33349V10.1755C142.399 9.88823 142.109 9.69334 141.778 9.59184C141.447 9.49034 140.949 9.43959 140.286 9.43959H137.615V15.8087ZM2.68612 27.4765V27.8877C2.68612 28.1383 2.73229 28.336 2.82533 28.4809C2.91802 28.6261 3.07732 28.7336 3.30322 28.804C3.52913 28.8745 3.83045 28.9196 4.20685 28.939C4.58324 28.9588 5.06148 28.9683 5.64087 28.9683C6.20863 28.9683 6.66362 28.9489 7.00547 28.9094C7.34697 28.8703 7.60777 28.7998 7.78786 28.698C7.96724 28.5961 8.08601 28.4629 8.14416 28.2987C8.20231 28.1344 8.23121 27.9226 8.23121 27.6643C8.23121 27.351 8.17059 27.118 8.04865 26.9654C7.92707 26.8125 7.74134 26.705 7.49217 26.6423C7.24265 26.5799 6.93604 26.5446 6.57093 26.5365C6.20581 26.5288 5.78008 26.5171 5.29338 26.5013C4.58641 26.4703 3.92596 26.4368 3.31168 26.4016C2.6974 26.3663 2.16453 26.2704 1.71237 26.1136C1.2602 25.9571 0.904252 25.7083 0.643104 25.3675C0.382308 25.0271 0.252262 24.5354 0.252262 23.8933C0.252262 23.2903 0.385127 22.8205 0.651914 22.4836C0.918349 22.1471 1.29192 21.8982 1.77298 21.7375C2.2537 21.5772 2.82181 21.481 3.47662 21.4496C4.13107 21.4186 4.85249 21.4027 5.64087 21.4027C6.30167 21.4027 6.92723 21.4186 7.51825 21.4496C8.10927 21.481 8.62205 21.573 9.05659 21.7259C9.49114 21.8785 9.83581 22.1136 10.091 22.4308C10.3458 22.7479 10.4734 23.1962 10.4734 23.7756V24.0583H7.97006V23.7763C7.97006 23.5413 7.93235 23.3576 7.85729 23.2244C7.78187 23.0912 7.65147 22.9915 7.46609 22.9249C7.28071 22.8586 7.04036 22.8191 6.74467 22.8075C6.44899 22.7959 6.08105 22.7899 5.64087 22.7899C5.01531 22.7899 4.51381 22.8036 4.13707 22.8311C3.76032 22.8586 3.47063 22.9115 3.26798 22.9897C3.06498 23.0683 2.92895 23.1797 2.85952 23.3245C2.79009 23.4697 2.7552 23.6593 2.7552 23.8944C2.7552 24.1686 2.7841 24.38 2.84225 24.5288C2.90005 24.6775 3.03044 24.7913 3.23344 24.8696C3.43609 24.9481 3.72578 25.0028 4.10253 25.0341C4.47892 25.0655 4.98606 25.093 5.6236 25.1162C6.6319 25.1554 7.46327 25.2061 8.11808 25.2689C8.77254 25.3316 9.29413 25.4472 9.68251 25.6153C10.0709 25.7837 10.3433 26.0266 10.4994 26.3438C10.6559 26.6609 10.7341 27.1015 10.7341 27.6654C10.7341 28.2839 10.6267 28.7716 10.4124 29.1279C10.1978 29.4842 9.87634 29.7545 9.44744 29.9385C9.01853 30.1225 8.48566 30.2381 7.84812 30.2849C7.21058 30.3318 6.47507 30.3554 5.64052 30.3554C4.92192 30.3554 4.23257 30.3456 3.57177 30.3262C2.91132 30.3064 2.32911 30.2205 1.82479 30.0679C1.32082 29.9153 0.921168 29.6724 0.625482 29.3397C0.330148 29.007 0.182129 28.5232 0.182129 27.8888V27.4775H2.68612V27.4765Z" fill="white"/>
</svg>
