<svg width="126" height="59" viewBox="0 0 126 59" fill="none" xmlns="http://www.w3.org/2000/svg">
<g clip-path="url(#clip0_129_830)">
<path fill-rule="evenodd" clip-rule="evenodd" d="M17.3596 21.7493C20.7137 9.22352 32.1435 0 45.7277 0C59.4374 0 70.9554 9.39485 74.1897 22.0978L62.3816 22.1029L61.0207 18.978C61.0207 18.978 63.3425 16.8105 63.9398 16.159C64.9532 15.0536 64.3067 14.4027 63.7454 13.7774C63.184 13.152 62.1242 11.9466 61.4188 11.2507C60.7134 10.5549 59.8874 9.93983 58.8241 11.2056C58.5588 11.5227 56.0146 14.0692 56.0146 14.0692L49.3712 11.2501L49.3574 6.90205C49.3574 5.68693 48.76 5.54922 47.8891 5.53504C47.0183 5.52087 44.7331 5.53302 43.94 5.53504C43.147 5.53707 42.3705 5.73756 42.3705 7.0033C42.3705 8.33183 42.4063 11.2987 42.4063 11.2987L35.6503 14.0206L32.5165 11.0557C31.5485 10.1849 30.9019 10.7507 30.4033 11.2657C29.9047 11.7807 28.4198 13.3598 27.9921 13.7887C27.5643 14.2176 26.9288 15.0544 27.7766 16.063C28.7649 17.0509 30.7415 19.0279 30.7415 19.0279L29.415 21.7841L17.361 21.7505L17.3596 21.7493ZM29.4277 36.9131L30.74 39.8294C28.2667 42.2596 28.1405 42.4688 27.9396 42.6638C26.7919 43.7777 27.3995 44.4952 27.7877 44.8747C28.2748 45.3511 30.1608 47.2102 30.5724 47.6087C31.1125 48.1318 31.8887 48.5707 32.7326 47.6932C33.4119 47.0127 35.6975 44.7384 35.6975 44.7384L42.4049 47.5575C42.4049 47.5575 42.3891 50.3427 42.4049 51.7097C42.4207 53.0768 43.1279 53.2602 43.7355 53.2444C44.343 53.2286 47.4315 53.2606 47.9377 53.2444C48.444 53.2282 49.2541 53.2297 49.3542 51.7108V47.5089L56.1102 44.7874L63.9199 52.4198C58.9163 56.3709 52.5971 58.7303 45.7277 58.7303C32.0854 58.7303 20.6159 49.4272 17.3169 36.8193L29.4275 36.9131H29.4277Z" fill="#F5F7FA"/>
<path d="M0.435547 23.7307H10.4323C13.2015 23.7307 14.5469 24.4816 14.5469 26.7033C14.5469 28.643 13.8421 29.0187 12.872 29.3002V29.3467C14.3893 29.5339 14.9525 30.3472 14.9525 32.0524C14.9525 34.5407 13.4822 35.0572 11.4955 35.0572H0.435547V23.7303V23.7307ZM3.90875 28.2205H10.0568C10.6982 28.2205 11.0735 27.986 11.0735 27.3444C11.0735 26.6873 10.6982 26.4528 10.0568 26.4528H3.90875V28.2195V28.2205ZM3.90875 32.3351H10.1352C10.8861 32.3351 11.3868 32.163 11.3868 31.5058C11.3868 30.7393 10.8861 30.5671 10.1352 30.5671H3.90875V32.3351ZM17.0502 23.7307H29.4403V26.359H20.523V28.1736H28.9711V30.5203H20.523V32.3349H29.6436V35.058H17.0502V23.7307ZM30.7546 23.7307H43.9897V26.5467H39.1086V35.0582H35.6353V26.5477H30.7546V23.7311V23.7307ZM45.3508 23.7307H48.8254V27.7669H56.1469V23.7307H59.6201V35.0582H56.1469V30.7709H48.8254V35.0582H45.3508V23.7313V23.7307ZM61.8105 23.7307H74.2038V26.359H65.2861V28.1736H73.7344V30.5203H65.2861V32.3349H74.4072V35.058H61.8105V23.7307ZM76.1438 31.3495H79.6166C79.6328 32.554 80.1182 32.648 81.1193 32.648H85.3748C86.1099 32.648 86.8609 32.5696 86.8609 31.6935C86.8609 30.7081 86.4544 30.6455 81.9802 30.6455C76.7552 30.6455 76.1606 30.0197 76.1606 27.2351C76.1606 25.1856 76.3483 23.6055 80.7288 23.6055H85.5791C89.5837 23.6055 89.9596 24.9665 89.9596 26.9536V27.3135H86.4858C86.4858 26.4831 86.3916 26.1388 84.7958 26.1388H80.9479C80.1656 26.1388 79.6336 26.405 79.6336 27.0153C79.6336 28.0008 80.0562 28.032 83.7792 28.0164C89.1763 28.001 90.4278 28.3295 90.4278 31.6306C90.4278 34.6817 89.3958 35.1827 84.7806 35.1827H80.5723C77.412 35.1827 76.1452 34.5877 76.1452 32.1308V31.3482L76.1438 31.3495ZM92.6956 23.7307H103.177C106.65 23.7307 107.871 24.8729 107.871 27.6731V31.1149C107.871 33.9158 106.65 35.058 103.177 35.058H92.6954V23.7311L92.6956 23.7307ZM96.1682 32.1474H102.333C103.819 32.1474 104.398 31.7249 104.398 30.1135V28.5804C104.398 26.969 103.819 26.5467 102.333 26.5467H96.1682V32.1474ZM114.989 23.7307H119.51L125.737 35.0582H121.872L120.793 33.0553H113.753L112.736 35.0592H108.856L114.989 23.7319V23.7307ZM115.052 30.6143H119.495L117.242 26.3588L115.052 30.6143ZM52.0161 40.9318C52.0161 42.3681 51.5495 42.8784 50.2299 42.8784H47.2842C45.8553 42.8784 45.4032 42.2369 45.4032 40.9027V39.4591C45.4032 38.1245 45.8553 37.4831 47.2846 37.4831H49.9822C50.93 37.4831 51.9432 37.7164 51.9432 38.934V39.1227H51.2724C51.2724 38.1385 50.9733 38.0656 49.2092 38.0656H47.3573C46.6728 38.0656 46.1179 38.2697 46.1179 39.1884V41.171C46.1179 42.0898 46.6728 42.294 47.3573 42.294H50.1501C50.865 42.294 51.3024 42.0461 51.3024 41.3172V40.785H48.598V40.2018H52.0171V40.9308L52.0161 40.9318ZM55.8214 37.5417H56.7113L59.8451 42.8201H59.036L58.3798 41.7046H54.1512L53.4951 42.8201H52.6858L55.8208 37.5417H55.8214ZM56.2664 38.1249L54.4947 41.1216H58.038L56.2664 38.1259V38.1249ZM60.6845 37.5417H61.8004L64.8868 41.9673L67.9711 37.5417H69.0866V42.8201H68.3721V38.1833H68.3579L65.1423 42.8201H64.632L61.414 38.1833H61.3992V42.8201H60.6849V37.5417H60.6845ZM70.4423 37.5417H75.6259V38.1249H71.1572V39.8091H75.4512V40.3923H71.1572V42.2369H75.6551V42.8201H70.4423V37.5417ZM80.2701 41.1578H80.9408V41.5297C80.9408 42.0473 81.2179 42.2952 82.1074 42.2952H84.3237C85.359 42.2952 85.6652 42.0765 85.6652 41.3182C85.6652 40.6548 85.4027 40.4871 84.5133 40.4871H83.1574C80.9773 40.4871 80.2628 40.3561 80.2628 38.9561C80.2628 37.7531 80.9773 37.4833 82.45 37.4833H83.9886C85.7592 37.4833 86.2041 37.9354 86.2041 38.8759V39.0581H85.5338C85.5196 38.2197 85.4313 38.0666 83.5576 38.0666H82.8C81.422 38.0666 80.9336 38.1395 80.9336 39.0073C80.9336 39.6351 81.1304 39.8457 82.2459 39.8457H84.3602C85.7525 39.8457 86.3357 40.2467 86.3357 41.1439V41.4861C86.3357 42.7843 85.2705 42.8795 84.2133 42.8795H82.2307C81.1877 42.8795 80.2689 42.6972 80.2689 41.5449V41.1581L80.2701 41.1578ZM89.7626 38.1249H87.0942V37.5417H93.1454V38.1249H90.4771V42.8203H89.7626V38.1239V38.1249ZM94.0418 37.5417H94.7567V41.4861C94.7567 41.9965 94.9315 42.2962 95.9009 42.2962H98.3797C99.3494 42.2962 99.5244 41.9973 99.5244 41.4871V37.5429H100.239V41.4944C100.239 42.5658 99.6994 42.8797 98.3579 42.8797H95.9232C94.5817 42.8797 94.0422 42.5658 94.0422 41.4944V37.5429L94.0418 37.5417ZM101.595 37.5417H105.86C107.632 37.5417 108.113 38.0958 108.113 40.1809C108.113 42.1202 107.632 42.8201 105.839 42.8201H101.595V37.5417H101.595ZM107.399 39.9257C107.399 38.402 106.925 38.1247 106.05 38.1247H102.31V42.2369H105.933C106.801 42.2369 107.399 42.0471 107.399 40.4652V39.9257ZM109.396 37.5417H110.111V42.8201H109.396V37.5417ZM111.539 39.4595C111.539 38.1249 111.991 37.4833 113.421 37.4833H116.461C117.89 37.4833 118.342 38.1249 118.342 39.4593V40.9029C118.342 42.2375 117.89 42.8795 116.461 42.8795H113.421C111.991 42.8795 111.539 42.2375 111.539 40.9039V39.4605V39.4595ZM117.627 39.1896C117.627 38.2722 117.073 38.0676 116.388 38.0676H113.494C112.808 38.0676 112.254 38.2722 112.254 39.1906V41.1738C112.254 42.0925 112.808 42.2966 113.494 42.2966H116.388C117.074 42.2966 117.628 42.0921 117.628 41.1738V39.1908L117.627 39.1896ZM119.472 41.1581H120.142V41.5307C120.142 42.0481 120.419 42.2962 121.309 42.2962H123.525C124.561 42.2962 124.867 42.0775 124.867 41.3191C124.867 40.6556 124.604 40.4879 123.715 40.4879H122.359C120.179 40.4879 119.464 40.3569 119.464 38.9569C119.464 37.7539 120.179 37.4842 121.652 37.4842H123.19C124.962 37.4842 125.406 37.9362 125.406 38.8767V39.0589H124.736C124.721 38.2205 124.633 38.0674 122.76 38.0674H122.002C120.624 38.0674 120.135 38.1403 120.135 39.0081C120.135 39.6355 120.332 39.8465 121.447 39.8465H123.562C124.954 39.8465 125.538 40.2475 125.538 41.1447V41.4869C125.538 42.7851 124.473 42.8799 123.416 42.8799H121.433C120.391 42.8799 119.472 42.6976 119.472 41.5459V41.1591L119.472 41.1581ZM122.636 24.8103C122.636 24.0412 123.256 23.4214 124.025 23.4214C124.79 23.4214 125.413 24.0412 125.413 24.8101C125.413 25.5791 124.79 26.199 124.025 26.199C123.256 26.199 122.636 25.5795 122.636 24.8103ZM125.096 24.8103C125.096 24.2161 124.611 23.7386 124.025 23.7386C123.427 23.7386 122.953 24.2161 122.953 24.8103C122.953 25.4045 123.427 25.8821 124.025 25.8821C124.612 25.8821 125.096 25.4043 125.096 24.8103ZM124.717 25.5724H124.36L124.025 24.9559H123.744V25.572H123.427V24.0697H124.178C124.524 24.0697 124.761 24.1313 124.761 24.5286C124.761 24.8057 124.619 24.9187 124.353 24.9369L124.717 25.5714V25.5724ZM124.185 24.7151C124.353 24.7188 124.444 24.6787 124.444 24.4891C124.444 24.3109 124.254 24.3109 124.109 24.3109H123.744V24.7155H124.185V24.7151Z" fill="#F5F7FA"/>
</g>
<defs>
<clipPath id="clip0_129_830">
<rect width="125.301" height="58.7303" fill="white" transform="translate(0.435547)"/>
</clipPath>
</defs>
</svg>
