<svg width="187" height="42" viewBox="0 0 187 42" fill="none" xmlns="http://www.w3.org/2000/svg">
<mask id="mask0_129_840" style="mask-type:luminance" maskUnits="userSpaceOnUse" x="0" y="0" width="187" height="42">
<path d="M0.78418 41.8167H186.844V0.753132H0.78418V41.8167Z" fill="white"/>
</mask>
<g mask="url(#mask0_129_840)">
<mask id="mask1_129_840" style="mask-type:luminance" maskUnits="userSpaceOnUse" x="0" y="0" width="187" height="42">
<path d="M0.80957 41.791H186.445V0.939232H0.80957V41.791Z" fill="white"/>
</mask>
<g mask="url(#mask1_129_840)">
<path d="M129.094 41.6798C125.335 41.6007 122.494 39.137 122.447 36.0873C122.398 32.9457 125.349 30.4264 129.332 30.3601C130.159 30.3345 131.158 30.4671 132.174 30.8392V34.3508C131.618 33.9915 130.54 33.861 129.841 33.861C128.444 33.8482 127.272 34.616 127.223 35.9162C127.176 37.1203 128.318 38.1682 129.858 38.1147C130.809 38.0891 131.919 37.7298 132.174 37.5052V41.1772C132.11 41.2029 130.602 41.7076 129.094 41.6798Z" fill="#CB9800"/>
<path d="M141.996 38.2495C140.632 38.273 139.806 37.2935 139.759 36.2199C139.712 35.1207 140.6 34.0856 141.949 34.0471C143.265 34.0065 144.075 35.0266 144.107 36.0873C144.154 37.1609 143.361 38.2217 141.996 38.2495ZM141.917 30.5462C138.252 30.559 135.253 33.0526 135.204 36.1151C135.157 39.2033 138.155 41.7739 141.838 41.8145C145.583 41.8808 148.724 39.5326 148.724 36.1536C148.724 33.0655 145.615 30.5334 141.917 30.5462Z" fill="#CB9800"/>
</g>
<path d="M157.773 35.5442H156.728V33.7413H157.711C158.314 33.7413 158.885 33.9274 158.933 34.5775C158.965 35.1998 158.409 35.5442 157.773 35.5442ZM160.883 37.069C160.883 37.054 163.644 36.6969 163.582 34.1134C163.518 31.6198 161.219 30.9183 158.871 30.9183L150.81 30.9098L152.38 32.4175V41.4296H156.76V37.9031L159.027 41.4296H164.042L160.883 37.069Z" fill="#CB9800"/>
<path d="M173.565 35.5313H172.536V33.6472H173.533C174.151 33.6472 174.692 33.8204 174.741 34.5497C174.803 35.2127 174.2 35.5313 173.565 35.5313ZM175.01 30.9183L166.524 30.9098L168.09 32.4154V41.4296H172.536V38.2602H174.724C177.198 38.273 179.341 37.3192 179.277 34.5112C179.215 32.0304 177.356 30.9183 175.01 30.9183Z" fill="#CB9800"/>
<mask id="mask2_129_840" style="mask-type:luminance" maskUnits="userSpaceOnUse" x="0" y="0" width="187" height="42">
<path d="M0.80957 41.791H186.445V0.939232H0.80957V41.791Z" fill="white"/>
</mask>
<g mask="url(#mask2_129_840)">
<path d="M120.435 14.575L116.511 26.1791H107.488L115.831 6.30714H125.382L133.293 26.1791H124.114L120.435 14.575Z" fill="#CB9800"/>
<path d="M17.0676 20.2103H14.467V16.2004H16.8836C18.2395 16.2004 19.5206 16.7393 19.5933 18.1101C19.6296 19.3206 18.4213 20.2103 17.0676 20.2103ZM14.4307 6.93588H16.2977C17.506 6.93588 18.4213 7.6352 18.4577 8.62324C18.494 9.57706 17.5424 10.3406 16.4453 10.3406H14.4307V6.93588ZM23.9881 12.8876C26.5138 11.998 28.7102 9.89572 28.599 7.25239C28.4172 3.17834 24.4265 0.949902 20.1065 0.949902L0.78418 0.939207L4.47328 4.62617V26.1962H18.4577C23.9881 26.1962 29.9912 24.9537 29.9912 18.9677C29.9549 15.563 27.7949 13.7794 23.9881 12.8876Z" fill="#CB9800"/>
</g>
<path d="M101.887 2.63945L98.6319 14.7012L95.3107 2.63945H86.7113L83.2532 14.8787L80.2377 2.63945L68.3428 2.63304L71.7817 6.06979L78.0456 26.2583H87.432L90.995 14.7012L94.4873 26.2583H104.147L111.718 2.63945H101.887Z" fill="#CB9800"/>
<path d="M146.184 15.052H144.144V11.643H146.06C147.234 11.643 148.348 11.9938 148.44 13.2213C148.5 14.3997 147.42 15.052 146.184 15.052ZM152.241 17.9348C152.241 17.9092 157.619 17.2312 157.495 12.3445C157.373 7.63315 152.891 6.3072 148.316 6.3072L132.57 6.29865L135.675 9.19434V26.1792H144.206V19.5131L148.627 26.1792H158.391L152.241 17.9348Z" fill="#CB9800"/>
<path d="M170.609 21.0166V18.786H177.44V13.6234H170.609V11.4677H178.244V6.3072L158.68 6.29223L161.8 9.20289V26.1792H178.49V21.0166H170.609Z" fill="#CB9800"/>
<path d="M33.002 6.31143H41.9029V10.7234H33.002V6.31143Z" fill="#CB9800"/>
<path d="M29.9287 12.5113L33.0019 15.3792V26.1835H41.905V12.5284L29.9287 12.5113Z" fill="#CB9800"/>
<path d="M57.8681 20.1696C55.2098 20.2167 53.6037 18.3647 53.5096 16.3351C53.4176 14.2542 55.1478 12.2995 57.774 12.2247C60.3403 12.1498 61.9165 14.0789 61.9785 16.0828C62.0705 18.1144 60.5264 20.1183 57.8681 20.1696ZM57.7141 5.60782C50.5733 5.63349 44.7327 10.3449 44.6408 16.1341C44.5467 21.9725 50.3894 26.8357 57.558 26.9105C64.8528 27.0346 70.9714 22.5991 70.9714 16.2089C70.9714 10.3705 64.9148 5.5843 57.7141 5.60782Z" fill="#CB9800"/>
<path d="M182.622 4.65621H182.992C183.24 4.65621 183.413 4.61771 183.513 4.53645C183.614 4.45946 183.667 4.35681 183.667 4.2349C183.667 4.11087 183.616 4.01035 183.52 3.93122C183.424 3.85209 183.259 3.8136 183.028 3.8136H182.622V4.65621ZM181.768 3.21265H183.308C183.744 3.21265 184.059 3.30033 184.255 3.47356C184.45 3.64893 184.548 3.88417 184.548 4.1793C184.548 4.40813 184.474 4.60916 184.322 4.77597C184.172 4.94492 183.935 5.06682 183.61 5.14168C183.744 5.193 183.841 5.24433 183.903 5.30207C183.99 5.3812 184.08 5.49668 184.176 5.6528C184.183 5.66349 184.369 5.99498 184.737 6.64726H183.719C183.394 5.99284 183.173 5.60361 183.062 5.4753C182.951 5.34698 182.84 5.28497 182.729 5.28497C182.701 5.28497 182.669 5.28924 182.622 5.29565V6.64726H181.768V3.21265ZM185.819 4.92996C185.819 4.21138 185.562 3.59974 185.055 3.09075C184.548 2.5839 183.937 2.3294 183.218 2.3294C182.502 2.3294 181.888 2.5839 181.379 3.09075C180.872 3.59974 180.618 4.21138 180.618 4.92996C180.618 5.64639 180.872 6.26017 181.379 6.76702C181.888 7.27601 182.502 7.52837 183.218 7.52837C183.937 7.52837 184.548 7.27601 185.055 6.76702C185.562 6.26017 185.819 5.64639 185.819 4.92996ZM186.445 4.92996C186.445 5.50524 186.302 6.04203 186.013 6.53819C185.727 7.03649 185.331 7.42785 184.835 7.71443C184.337 8.001 183.798 8.14429 183.223 8.14429C182.649 8.14429 182.113 8.001 181.616 7.71443C181.116 7.42785 180.725 7.03649 180.436 6.53819C180.147 6.04203 180.004 5.50524 180.004 4.92996C180.004 4.35681 180.147 3.82001 180.436 3.32171C180.725 2.82342 181.116 2.43205 181.616 2.14334C182.113 1.8589 182.649 1.71562 183.223 1.71562C183.798 1.71562 184.337 1.8589 184.835 2.14334C185.331 2.43205 185.727 2.82342 186.013 3.32171C186.302 3.82001 186.445 4.35681 186.445 4.92996Z" fill="#CB9800"/>
</g>
</svg>
