<svg width="151" height="36" viewBox="0 0 151 36" fill="none" xmlns="http://www.w3.org/2000/svg">
<g id="Component 4">
<path id="Path" opacity="0.8" d="M26.6002 18.3649L17.7827 27.1823H35.4177L26.6002 18.3649Z" fill="#FEBC11"/>
<path id="Path_1_" d="M8.96592 18.365L0.148438 9.54749V27.1824L8.96592 18.365Z" fill="#FEBC11" fill-opacity="0.55"/>
<path id="Path_2_" opacity="0.8" d="M26.6002 18.365L35.4177 9.54749H17.7827L26.6002 18.365Z" fill="#FEBC11"/>
<path id="Path_3_" d="M17.7833 9.54758L26.6008 0.730103H8.96582L17.7833 9.54758Z" fill="#FEBC11" fill-opacity="0.75"/>
<path id="Path_4_" opacity="0.8" d="M26.6002 36.0001L35.4177 27.1826H17.7827L26.6002 36.0001Z" fill="#FEBC11"/>
<path id="Path_5_" opacity="0.7" d="M8.96592 36.0001L17.7834 27.1826H0.148438L8.96592 36.0001Z" fill="#FEBC11"/>
<path id="Path_6_" opacity="0.8" d="M26.6002 0.730103L17.7827 9.54758H35.4177L26.6002 0.730103Z" fill="#FEBC11"/>
<path id="Path_7_" opacity="0.7" d="M0.148438 9.54758H17.7834L8.96592 0.730103L0.148438 9.54758Z" fill="#FEBC11"/>
<path id="Path_8_" d="M17.7833 27.1826L8.96582 36.0001H26.6008L17.7833 27.1826Z" fill="#FEBC11" fill-opacity="0.75"/>
<path id="Path_9_" d="M8.96592 18.3649L0.148438 27.1823H17.7834L8.96592 18.3649Z" fill="#FEBC11" fill-opacity="0.6"/>
<path id="Path_10_" d="M17.7834 9.54749H0.148438L8.96592 18.365L17.7834 9.54749Z" fill="#FEBC11" fill-opacity="0.6"/>
<path id="Shape" opacity="0.8" fill-rule="evenodd" clip-rule="evenodd" d="M45.6591 21.6072C46.1256 21.6072 46.4755 21.4672 46.7088 21.2106C46.942 20.9541 47.0587 20.5808 47.0587 20.0676H50.2777L50.3011 20.1376C50.371 21.2806 49.8812 22.4003 49.0181 23.1468C48.085 23.9399 46.8954 24.3597 45.6591 24.3131C43.9329 24.3131 42.6266 23.7766 41.6935 22.7269C40.7371 21.5605 40.2239 20.091 40.2939 18.5981V18.3648C40.2939 16.6853 40.7605 15.309 41.6935 14.236C42.6033 13.1629 43.9329 12.6498 45.6357 12.6498C47.0587 12.6498 48.2017 13.0463 49.0648 13.8394C49.9512 14.6792 50.3944 15.8922 50.3244 17.1052L50.3011 17.1751H47.082C47.1053 16.7086 46.9654 16.2421 46.7321 15.8688C46.4988 15.5423 46.1489 15.379 45.6591 15.379C44.9826 15.379 44.5161 15.6589 44.2595 16.1954C43.9562 16.8952 43.8162 17.6417 43.8629 18.3881V18.6214C43.8629 19.5545 44.0029 20.3009 44.2595 20.8374C44.4927 21.3273 44.9826 21.6072 45.6591 21.6072ZM58.1388 15.9388H56.8559C56.4593 15.9388 56.1327 16.0088 55.8761 16.1254C55.6195 16.2654 55.4329 16.452 55.3163 16.7086V24.1032H51.794V12.8364H55.1064L55.223 14.4926C55.4096 13.9561 55.7362 13.4895 56.1794 13.1163C56.5526 12.7897 57.0425 12.6264 57.5323 12.6264C57.8589 12.6264 58.1855 12.6731 58.5121 12.7431L58.1388 15.9388ZM64.8336 19.1346V19.2279H64.9036L66.7697 12.8364H70.5253L66.0232 25.7593C65.6733 26.5991 65.2301 27.2756 64.6703 27.8121C64.1104 28.3486 63.2474 28.6285 62.0344 28.6285C61.7311 28.6285 61.4745 28.6052 61.2879 28.5585C61.1013 28.5352 60.7981 28.4652 60.3782 28.3486L60.7981 25.8527L61.008 25.8993L61.1946 25.9226C61.7545 25.9226 62.151 25.8293 62.4076 25.666C62.6642 25.5028 62.8508 25.2462 62.9908 24.9196L63.2707 24.1965L59.3518 12.813H63.1074L64.8336 19.1346ZM78.3864 18.4814C78.3864 17.5484 78.2464 16.7553 77.9665 16.1954C77.6866 15.6122 77.2434 15.3323 76.6369 15.3323C76.2403 15.3323 75.8904 15.4023 75.6338 15.5423C75.3539 15.6822 75.144 15.8922 74.9807 16.1721V20.8841C75.144 21.1173 75.3772 21.304 75.6338 21.4206C75.9604 21.5372 76.3103 21.6072 76.6602 21.5839C77.29 21.5839 77.7099 21.3273 77.9898 20.8141C78.2931 20.1376 78.433 19.4145 78.3864 18.668V18.4814ZM81.9087 18.6914C81.9087 20.3942 81.5121 21.7472 80.7657 22.7735C80.0192 23.7999 78.8062 24.3597 77.5466 24.3131C76.5436 24.3364 75.6105 23.8932 75.004 23.1001V28.4186H71.4817V12.8364H74.7707L74.9107 14.0727C75.4705 13.1629 76.4736 12.6031 77.5466 12.6264C78.9462 12.6264 80.0192 13.1629 80.789 14.236C81.6054 15.4956 82.002 16.9885 81.932 18.4814V18.6914H81.9087ZM87.6237 10.0372V12.8364H89.5365V15.2623H87.6237V20.4409C87.6237 20.8374 87.717 21.1173 87.857 21.304C88.0203 21.4906 88.2769 21.5839 88.5101 21.5839C88.86 21.5839 89.2099 21.5605 89.5365 21.4906L89.7698 24.1032C89.07 24.2664 88.3468 24.3597 87.6004 24.3597C86.4341 24.3597 85.571 24.0332 84.9645 23.4267C84.358 22.8202 84.0547 21.8405 84.0547 20.5108V15.309H82.4685V12.883H84.0547V10.0838H87.6237V10.0372ZM93.9452 18.5747C93.9452 19.5078 94.0852 20.2543 94.3885 20.7908C94.6917 21.3273 95.1816 21.5839 95.9047 21.5839C96.6045 21.5839 97.0944 21.3273 97.3743 20.7674C97.6775 20.2309 97.8175 19.4845 97.8175 18.5514V18.3181C97.8408 17.5484 97.7008 16.8019 97.3743 16.1254C97.071 15.5656 96.5812 15.309 95.858 15.309C95.1582 15.309 94.6684 15.5889 94.3885 16.1488C94.0852 16.7086 93.9452 17.4317 93.9452 18.3415V18.5747ZM90.4229 18.3648C90.3529 16.8486 90.8661 15.379 91.8692 14.236C92.8256 13.1629 94.1785 12.6264 95.8814 12.6264C97.6075 12.6264 98.9372 13.1629 99.8935 14.236C100.873 15.379 101.41 16.8486 101.34 18.3648V18.5981C101.34 20.3009 100.85 21.6772 99.8935 22.7269C98.9372 23.7999 97.6075 24.3131 95.8814 24.3131C94.1552 24.3131 92.8022 23.7766 91.8458 22.7269C90.8661 21.5839 90.3529 20.091 90.4229 18.5981V18.3648ZM106.145 12.8364L106.285 14.4226C106.658 13.8627 107.101 13.4195 107.661 13.1163C108.221 12.7897 108.828 12.6264 109.457 12.6498C110.577 12.6498 111.44 12.9997 112.047 13.7228C112.677 14.4459 112.98 15.5889 112.98 17.1518V24.1265H109.457V17.1285C109.457 16.4753 109.318 16.0321 109.061 15.7522C108.804 15.4956 108.408 15.3557 107.871 15.3557C107.288 15.3323 106.728 15.5889 106.355 16.0321V24.1265H102.856V12.8597H106.145V12.8364ZM119.815 15.3323C119.301 15.3323 118.928 15.4956 118.672 15.8688C118.415 16.2187 118.275 16.7086 118.205 17.3151L118.228 17.3617H121.261V17.1052C121.261 16.522 121.144 16.1021 120.911 15.7989C120.678 15.4723 120.328 15.3323 119.815 15.3323ZM120.071 24.3131C118.392 24.3131 117.085 23.7999 116.082 22.7502C115.079 21.7005 114.543 20.2776 114.589 18.8313V18.4348C114.589 16.7086 115.033 15.309 115.942 14.236C116.852 13.1629 118.135 12.6031 119.815 12.6264C121.354 12.6264 122.544 13.093 123.407 14.0027C124.317 15.0291 124.783 16.3587 124.713 17.7116V19.5545H118.252L118.228 19.6244C118.322 20.2076 118.532 20.6741 118.951 21.0474C119.348 21.4206 119.861 21.6072 120.538 21.6072C121.611 21.6305 122.684 21.3973 123.663 20.9074L124.503 23.0535C123.92 23.45 123.267 23.7533 122.59 23.9632C121.797 24.1965 120.958 24.3131 120.071 24.3131ZM135.91 19.3678H135.98L137.193 12.8364H140.435L137.776 24.1032H134.79L132.947 18.1315H132.877L131.035 24.1032H128.049L125.39 12.8364H128.632L129.868 19.4145H129.938L131.781 12.8364H133.997L135.91 19.3678ZM147.573 20.9307C147.573 20.6508 147.41 20.4175 147.107 20.1843C146.57 19.881 145.987 19.6944 145.381 19.6011C144.308 19.4378 143.281 19.0413 142.395 18.3881C141.718 17.8516 141.368 17.0352 141.392 16.1721C141.392 15.1924 141.858 14.2593 142.651 13.6528C143.491 12.9763 144.634 12.6264 146.034 12.6264C147.55 12.6264 148.74 12.953 149.626 13.6295C150.466 14.2126 150.956 15.1924 150.909 16.2187L150.886 16.2887H147.48C147.48 15.8455 147.363 15.5189 147.13 15.2857C146.897 15.0524 146.547 14.9358 146.057 14.9358C145.684 14.9358 145.381 15.0291 145.124 15.239C144.891 15.4256 144.751 15.7056 144.751 16.0088C144.774 16.312 144.914 16.592 145.171 16.7553C145.707 17.0585 146.314 17.2451 146.92 17.3151C148.016 17.4784 149.066 17.8983 149.976 18.5281C150.652 19.0879 151.026 19.9277 150.956 20.8141C150.956 21.8171 150.512 22.6569 149.603 23.31C148.553 24.0098 147.293 24.3597 146.034 24.2898C144.494 24.2898 143.281 23.8932 142.395 23.1234C141.508 22.3537 141.065 21.4672 141.112 20.5108L141.135 20.4409H144.331C144.354 20.9774 144.494 21.3506 144.821 21.5839C145.124 21.8171 145.567 21.9338 146.127 21.9338C146.594 21.9338 146.967 21.8405 147.2 21.6539C147.457 21.5372 147.573 21.2573 147.573 20.9307Z" fill="white"/>
</g>
</svg>
