<svg width="113" height="32" viewBox="0 0 113 32" fill="none" xmlns="http://www.w3.org/2000/svg">
<g clip-path="url(#clip0_129_818)">
<path d="M48.3534 26.4798H48.9526V31.8014H48.3534V26.4798ZM46.5561 31.8014H47.1552V26.4798H46.5561V31.8014ZM43.6662 26.515L45.9569 31.7662H45.3226L44.6529 30.2155H41.8688L41.1992 31.7662H40.6L42.8908 26.515C42.9613 26.3388 43.1023 26.2331 43.2785 26.2331C43.4547 26.2683 43.5957 26.3741 43.6662 26.515ZM44.4415 29.7574L43.2785 27.0084L42.0802 29.7574H44.4415ZM35.6661 29.8278C35.6661 30.9556 34.7497 31.9072 33.481 31.9072C32.2475 31.9072 31.3312 30.9909 31.3312 29.8631C31.3312 28.7706 32.2475 27.819 33.481 27.819C34.7497 27.7838 35.6661 28.7001 35.6661 29.8278ZM35.0317 29.8278C35.0317 28.982 34.3621 28.2772 33.481 28.2772C32.5999 28.2772 31.9656 28.982 31.9656 29.7926C31.9656 30.6384 32.6352 31.308 33.481 31.308C34.3973 31.3433 35.0317 30.6737 35.0317 29.8278ZM37.2167 28.8763V27.8543H36.6176V31.7662H37.2167V30.2155C37.2167 29.0173 37.9216 28.4181 38.7674 28.4181H38.8027V27.7838C38.0978 27.7838 37.5339 28.2419 37.2167 28.8763ZM29.5338 26.5503C29.3224 26.7617 29.1814 27.1142 29.1814 27.5723V27.8543H28.5823V28.3477H29.1814V31.8014H29.7453V28.3477H30.9788V27.8543H29.7453V27.6076C29.7453 27.0437 29.9567 26.7617 30.4149 26.7617C30.6263 26.7617 30.7673 26.797 30.9788 26.8675V26.3741C30.8026 26.3036 30.5911 26.2683 30.3444 26.2683C30.0272 26.2683 29.7453 26.3741 29.5338 26.5503ZM24.4236 27.7838C23.754 27.7838 23.3311 28.1362 23.0844 28.5591V27.8543H22.4853V31.8014H23.0844V29.5459C23.0844 28.8058 23.5778 28.3124 24.2474 28.3124C24.9523 28.3124 25.3399 28.7706 25.3399 29.5107V31.8014H25.9391V29.3697C25.9391 28.4181 25.3752 27.7838 24.4236 27.7838ZM20.7231 30.1098C20.7231 30.8499 20.2298 31.3433 19.5601 31.3433C18.8553 31.3433 18.4676 30.8851 18.4676 30.145V27.8543H17.8685V30.3212C17.8685 31.2728 18.4324 31.9072 19.3839 31.9072C20.0535 31.9072 20.4764 31.5547 20.7231 31.1318V31.8014H21.287V27.8543H20.7231V30.1098ZM13.3574 26.9379V31.8014H13.9565V29.4754H16.9169V28.9468H13.9565V27.0084H17.2341V26.4798H13.8156C13.5689 26.4798 13.3574 26.6912 13.3574 26.9379ZM55.9659 27.7838C55.2962 27.7838 54.8733 28.1362 54.6266 28.5591V27.8543H54.0275V31.8014H54.6266V29.5459C54.6266 28.8058 55.12 28.3124 55.7896 28.3124C56.4945 28.3124 56.8822 28.7706 56.8822 29.5107V31.8014H57.4813V29.3697C57.446 28.4181 56.9174 27.7838 55.9659 27.7838ZM65.3757 29.8278C65.3757 30.9556 64.4593 31.9072 63.1906 31.9072C61.9571 31.9072 61.0408 30.9909 61.0408 29.8631C61.0408 28.7706 61.9571 27.819 63.1906 27.819C64.4593 27.7838 65.3757 28.7001 65.3757 29.8278ZM64.7413 29.8278C64.7413 28.982 64.0717 28.2772 63.1906 28.2772C62.3095 28.2772 61.6752 28.982 61.6752 29.7926C61.6752 30.6384 62.3448 31.308 63.1906 31.308C64.1069 31.3433 64.7413 30.6737 64.7413 29.8278ZM52.2301 31.8014H52.8293V27.8543H52.2301V31.8014ZM52.5121 26.2683C52.2654 26.2683 52.0539 26.4798 52.0539 26.7265C52.0539 26.9732 52.2654 27.1846 52.5121 27.1846C52.7588 27.1846 52.9702 26.9732 52.9702 26.7265C52.9702 26.4798 52.7588 26.2683 52.5121 26.2683ZM59.3139 26.6912H58.7148V27.8895H58.1157V28.3477H58.7148V30.7442C58.7148 31.5547 59.2082 31.8367 59.8073 31.8367C60.0893 31.8367 60.3007 31.7662 60.5122 31.6605V31.1671C60.3007 31.2728 60.1245 31.308 59.9483 31.308C59.5606 31.308 59.2787 31.1318 59.2787 30.6384V28.3477H60.5122V27.8543H59.2787V26.6912H59.3139ZM92.3716 26.6912H91.7724V27.8895H91.1733V28.3477H91.7724V30.7442C91.7724 31.5547 92.2658 31.8367 92.865 31.8367C93.1469 31.8367 93.3584 31.7662 93.5698 31.6605V31.1671C93.3584 31.2728 93.1822 31.308 93.0059 31.308C92.6183 31.308 92.3363 31.1318 92.3363 30.6384V28.3477H93.5698V27.8543H92.3716V26.6912ZM99.7021 28.8763V27.8543H99.1029V31.7662H99.7021V30.2155C99.7021 29.0173 100.407 28.4181 101.253 28.4181H101.288V27.7838C100.548 27.7838 99.984 28.2419 99.7021 28.8763ZM105.588 30.0393H102.24C102.345 30.8851 102.98 31.3785 103.72 31.3785C104.284 31.3785 104.707 31.1671 105.059 30.8146L105.376 31.2376C104.988 31.6252 104.46 31.8719 103.72 31.8719C102.557 31.8719 101.64 31.0613 101.64 29.8278C101.64 28.7001 102.486 27.7838 103.649 27.7838C104.883 27.7838 105.623 28.7001 105.623 29.8631C105.588 29.9336 105.588 29.9688 105.588 30.0393ZM104.953 29.6164C104.883 28.9115 104.46 28.2772 103.614 28.2772C102.874 28.2772 102.345 28.8411 102.24 29.6164H104.953ZM97.3408 30.1098C97.3408 30.8499 96.8474 31.3433 96.1778 31.3433C95.4729 31.3433 95.0853 30.8851 95.0853 30.145V27.8543H94.4861V30.3212C94.4861 31.2728 95.05 31.9072 96.0016 31.9072C96.6712 31.9072 97.0941 31.5547 97.3408 31.1318V31.8014H97.9047V27.8543H97.3408V30.1098ZM89.7636 30.1098C89.7636 30.8499 89.2702 31.3433 88.6006 31.3433C87.8958 31.3433 87.5081 30.8851 87.5081 30.145V27.8543H86.909V30.3212C86.909 31.2728 87.4728 31.9072 88.4244 31.9072C89.094 31.9072 89.5169 31.5547 89.7636 31.1318V31.8014H90.3275V27.8543H89.7636V30.1098ZM82.4331 26.9379V31.8014H83.0323V29.4754H85.9926V28.9468H83.0323V27.0084H86.3098V26.4798H82.8913C82.6446 26.4798 82.4331 26.6912 82.4331 26.9379ZM68.9704 26.6912H68.4065V27.8895H67.8074V28.3477H68.4065V30.7442C68.4065 31.5547 68.8999 31.8367 69.4991 31.8367C69.781 31.8367 69.9925 31.7662 70.2039 31.6605V31.1671C69.9925 31.2728 69.8162 31.308 69.64 31.308C69.2524 31.308 68.9704 31.1318 68.9704 30.6384V28.3477H70.2039V27.8543H68.9704V26.6912ZM79.4375 29.8631V30.0393H76.1247C76.2304 30.8851 76.8648 31.3785 77.6049 31.3785C78.1688 31.3785 78.5917 31.1671 78.9441 30.8146L79.2613 31.2376C78.8736 31.6252 78.345 31.8719 77.6049 31.8719C76.4419 31.8719 75.5256 31.0613 75.5256 29.8278C75.5256 28.7001 76.3714 27.7838 77.5344 27.7838C78.7326 27.7838 79.4375 28.7001 79.4375 29.8631ZM78.8031 29.6164C78.7327 28.9115 78.3097 28.2772 77.4639 28.2772C76.7238 28.2772 76.1952 28.8411 76.0894 29.6164H78.8031ZM73.1291 27.7838C72.4594 27.7838 72.0365 28.1362 71.7898 28.5591V26.2331H71.1907V31.7662H71.7898V29.5107C71.7898 28.7706 72.2832 28.2772 72.9528 28.2772C73.6577 28.2772 74.0454 28.7353 74.0454 29.4754V31.7662H74.6445V29.3345C74.6092 28.4181 74.0806 27.7838 73.1291 27.7838Z" fill="white"/>
<path d="M109.464 0.858337H3.3837C1.55108 0.858337 0.0356445 2.33853 0.0356445 4.20639V15.6955C0.0356445 16.6823 0.423314 17.6691 1.12817 18.374L9.23399 26.4798V22.3916H109.429C111.297 22.3916 112.777 20.8762 112.777 19.0436V4.20639C112.812 2.33853 111.297 0.858337 109.464 0.858337ZM109.922 19.6427H9.26923V22.3916L2.92555 16.0479V3.57203H109.887V19.6427H109.922Z" fill="#E60000"/>
<path d="M86.2746 8.29455V16.0832H84.3715V10.3386C84.3715 10.3386 82.7504 12.6294 82.2217 13.4047C81.7988 14.0039 80.8825 14.0039 80.4596 13.4047C79.9309 12.6294 78.3098 10.3386 78.3098 10.3386V16.0832H76.4067V8.29455C76.4067 7.90688 76.5829 7.51921 76.9001 7.30775C77.4287 6.95532 78.1688 7.06105 78.5565 7.58969C79.2613 8.57649 81.3054 11.5369 81.3054 11.5369C81.3054 11.5369 83.3847 8.57649 84.0543 7.58969C84.442 7.06105 85.1469 6.92008 85.7107 7.30775C86.0984 7.51921 86.2746 7.90688 86.2746 8.29455ZM64.1775 12.9113C64.1775 12.9113 61.3933 8.92891 60.4417 7.58969C60.0541 7.06105 59.3492 6.92008 58.7853 7.30775C58.4681 7.51921 58.2919 7.90688 58.2919 8.29455V16.0832H60.195V10.3386C60.195 10.3386 62.9792 14.321 63.9308 15.6603C64.3184 16.1889 65.0233 16.3299 65.5872 15.9422C65.9043 15.7308 66.0806 15.3431 66.0806 14.9554V7.16678H64.1775V12.9113ZM92.6888 8.57649C93.6051 8.57649 94.4157 8.9994 95.0148 9.59853L96.0721 8.11833C95.191 7.37824 93.9928 6.95532 92.6888 6.95532C89.9399 6.95532 87.6139 8.78794 87.6139 11.5721C87.6139 14.3563 89.9751 16.1889 92.6888 16.1889C93.9928 16.1889 95.191 15.766 96.0721 15.0259L95.0148 13.5457C94.4509 14.1448 93.6051 14.5677 92.6888 14.5677C90.9619 14.5677 89.7637 13.2285 89.7637 11.5369C89.7637 9.95095 90.9619 8.57649 92.6888 8.57649ZM106.363 11.6074C106.363 14.3915 104.072 16.2242 101.429 16.2242C98.7858 16.2242 96.495 14.3915 96.495 11.6074C96.495 8.82319 98.7858 6.99057 101.429 6.99057C104.072 6.99057 106.363 8.82319 106.363 11.6074ZM104.248 11.6074C104.248 9.95095 103.085 8.57649 101.394 8.57649C99.7021 8.57649 98.5391 9.91571 98.5391 11.6074C98.5391 13.2638 99.7021 14.6382 101.394 14.6382C103.121 14.6382 104.248 13.299 104.248 11.6074ZM72.53 7.94212C73.3406 9.9862 75.8075 16.0479 75.8075 16.0479H73.7987L72.9881 14.0039H69.3581L68.5475 16.0479H66.5387C66.5387 16.0479 69.0057 9.95095 69.8163 7.94212C70.063 7.30775 70.5916 6.99057 71.1555 6.99057C71.7194 6.99057 72.2833 7.30775 72.53 7.94212ZM72.4242 12.5237L71.1908 9.42231L69.9573 12.5237H72.4242ZM15.4368 13.6514C15.4368 14.9202 14.5205 16.0479 12.9698 16.0479H8.10631C7.64815 16.0479 7.36621 15.7308 7.36621 15.3078V7.90688C7.36621 7.44872 7.6834 7.16678 8.10631 7.16678H12.4059C13.8861 7.16678 14.9082 8.15357 14.9082 9.38707C14.9082 10.3739 14.2385 11.2549 13.287 11.5016C14.5205 11.5721 15.4368 12.4532 15.4368 13.6514ZM9.23407 10.7615H11.7011C12.4059 10.7615 12.8288 10.3034 12.8288 9.77474C12.8288 9.21086 12.4059 8.78794 11.7011 8.78794H9.23407V10.7615ZM13.3575 13.3695C13.3575 12.7704 12.8641 12.277 12.1592 12.277H9.26932V14.462H12.1592C12.8993 14.462 13.3575 13.9686 13.3575 13.3695ZM31.3665 12.9113C31.3665 12.9113 28.5823 8.92891 27.6308 7.58969C27.2431 7.06105 26.5382 6.92008 25.9744 7.30775C25.6572 7.51921 25.481 7.90688 25.481 8.29455V16.0832H27.3841V10.3386C27.3841 10.3386 30.1682 14.321 31.1198 15.6603C31.5075 16.1889 32.2123 16.3299 32.7762 15.9422C33.0934 15.7308 33.2696 15.3431 33.2696 14.9554V7.16678H31.4017V12.9113H31.3665ZM52.6178 16.0479H54.5914V7.16678H52.6178V16.0479ZM42.9613 11.5721C42.9613 14.4973 40.8115 16.0832 38.3445 16.0832H35.8423C35.3842 16.0832 35.1022 15.766 35.1022 15.3431V7.90688C35.1022 7.44872 35.4194 7.16678 35.8423 7.16678H38.3798C40.8115 7.16678 42.9613 8.57649 42.9613 11.5721ZM40.882 11.5721C40.882 9.45755 39.2961 8.7527 37.9569 8.7527H36.9701V14.462H37.9216C39.5076 14.462 40.882 13.6514 40.882 11.5721ZM21.6043 7.94212C22.4148 9.9862 24.8818 16.0479 24.8818 16.0479H22.873L22.0624 14.0039H18.4324L17.6218 16.0479H15.613C15.613 16.0479 18.08 9.95095 18.8906 7.94212C19.1373 7.30775 19.6659 6.99057 20.2298 6.99057C20.8289 6.99057 21.3576 7.30775 21.6043 7.94212ZM21.4633 12.5237L20.2298 9.42231L18.9963 12.5237H21.4633ZM48.7059 7.94212C49.5165 9.9862 51.9835 16.0479 51.9835 16.0479H49.9746L49.1641 14.0039H45.5341L44.7235 16.0479H42.7146C42.7146 16.0479 45.1816 9.95095 45.9922 7.94212C46.2389 7.30775 46.7676 6.99057 47.3314 6.99057C47.8953 6.99057 48.4592 7.30775 48.7059 7.94212ZM48.5649 12.5237L47.3314 9.42231L46.0979 12.5237H48.5649Z" fill="white"/>
</g>
<defs>
<clipPath id="clip0_129_818">
<rect width="112.777" height="31.0136" fill="white" transform="translate(0.0356445 0.858337)"/>
</clipPath>
</defs>
</svg>
